<?xml version="1.0" standalone="no"?>
<!DOCTYPE svg PUBLIC "-//W3C//DTD SVG 20010904//EN"
 "http://www.w3.org/TR/2001/REC-SVG-20010904/DTD/svg10.dtd">
<svg version="1.0" xmlns="http://www.w3.org/2000/svg"
 width="650.000000pt" height="512.000000pt" viewBox="0 0 650.000000 512.000000"
 preserveAspectRatio="xMidYMid meet">

<g transform="translate(0.000000,512.000000) scale(0.100000,-0.100000)"
fill="#000000" stroke="none">
<path d="M0 2560 l0 -2560 3250 0 3250 0 0 2560 0 2560 -3250 0 -3250 0 0
-2560z m3333 1588 c31 29 38 28 74 -10 17 -18 104 -106 194 -195 90 -89 217
-215 281 -280 64 -65 187 -187 272 -272 86 -85 156 -157 156 -161 0 -13 -941
-945 -951 -942 -6 1 -18 9 -26 17 -20 20 -35 19 -56 -5 -22 -26 -31 -25 -47 5
-7 14 -15 23 -17 21 -2 -2 -39 32 -83 75 -43 44 -85 79 -92 79 -18 0 -61 -46
-82 -87 -9 -18 -21 -33 -26 -33 -23 0 -5 91 35 183 12 29 -18 20 -52 -15 -17
-18 -38 -48 -47 -65 -9 -18 -24 -33 -32 -33 -24 0 -10 81 27 155 l30 59 -293
293 -293 293 72 72 c52 54 69 77 63 88 -5 8 -11 22 -13 31 -3 9 -20 19 -38 23
-78 15 -79 54 -2 139 48 53 70 68 145 100 49 20 142 51 206 68 l117 31 200
198 200 199 27 -26 28 -27 23 22z m-2477 -2331 c-1 -174 -1 -174 58 -163 58
11 77 96 31 142 -23 23 -24 27 -10 47 24 35 15 97 -19 119 -6 4 2 8 17 8 35 0
77 -40 77 -73 0 -13 -11 -36 -26 -50 l-25 -25 31 -19 c51 -30 55 -101 8 -136
-22 -16 -47 -22 -115 -25 l-88 -4 0 168 0 169 31 1 31 1 -1 -160z m384 143
c-6 -12 -9 -75 -8 -162 l3 -143 56 -3 c42 -2 61 1 73 13 15 15 16 15 16 -4 0
-20 -5 -21 -110 -21 -102 0 -110 1 -101 18 5 9 8 82 6 162 -3 155 -2 160 48
160 25 0 27 -2 17 -20z m283 -1 c-4 -19 81 -211 92 -211 13 0 96 194 92 213
-3 11 2 17 17 17 l22 0 -26 -52 c-36 -72 -102 -216 -115 -250 -11 -27 -12 -25
-64 85 -30 63 -64 135 -76 161 -13 26 -21 48 -19 50 1 2 20 3 41 2 27 0 37 -5
36 -15z m1852 -144 l0 -160 54 -3 c30 -2 59 2 64 7 15 15 27 14 27 -4 0 -12
-19 -15 -107 -15 l-108 0 0 168 0 167 35 0 35 0 0 -160z m350 22 l0 -139 34
-28 33 -28 -37 8 c-21 5 -50 20 -64 35 -25 24 -26 32 -31 156 -3 72 -3 132 -1
135 2 2 18 3 35 2 l31 -1 0 -140z m365 133 c0 -5 -5 -10 -11 -10 -5 0 -7 5 -4
10 3 6 8 10 11 10 2 0 4 -4 4 -10z m63 3 c-7 -2 -21 -2 -30 0 -10 3 -4 5 12 5
17 0 24 -2 18 -5z m89 -144 c-3 -96 0 -154 8 -168 10 -20 8 -21 -36 -21 -39 0
-45 2 -35 14 9 11 11 60 9 169 l-3 154 30 -1 30 -1 -3 -146z m75 145 c-3 -3
-12 -4 -19 -1 -8 3 -5 6 6 6 11 1 17 -2 13 -5z m43 -4 c0 -5 -5 -10 -11 -10
-5 0 -7 5 -4 10 3 6 8 10 11 10 2 0 4 -4 4 -10z m191 -149 c-1 -104 2 -157 10
-167 10 -12 4 -14 -35 -14 -29 0 -45 4 -41 10 3 6 6 78 6 162 0 83 2 154 4
158 2 3 16 5 30 5 l27 -2 -1 -152z m336 153 c-3 -3 -12 -4 -19 -1 -8 3 -5 6 6
6 11 1 17 -2 13 -5z m609 -11 c-4 -8 -6 -80 -6 -160 l0 -145 -42 37 c-24 21
-73 67 -109 101 -70 67 -83 74 -93 48 -10 -26 -7 -164 4 -185 10 -17 7 -19
-27 -19 l-38 0 3 162 3 161 52 -49 c29 -27 80 -75 113 -108 34 -32 67 -55 73
-52 6 4 10 47 10 109 -1 56 -1 104 0 107 1 3 15 5 32 6 22 1 29 -2 25 -13z
m-3574 -9 c-26 -18 -29 -54 -4 -74 9 -8 43 -32 75 -53 54 -35 77 -66 77 -103
0 -18 -53 -74 -69 -74 -6 0 -2 9 9 20 36 36 21 67 -56 116 -76 49 -94 69 -94
104 0 35 38 80 67 80 15 0 14 -2 -5 -16z m118 -1 c0 -11 -3 -14 -8 -7 -4 6
-14 14 -22 17 -10 4 -8 6 8 6 15 1 22 -5 22 -16z m507 -3 c-38 -30 -24 -54 63
-114 82 -57 100 -88 78 -132 -7 -15 -23 -34 -36 -42 l-23 -15 17 30 c10 16 15
37 11 46 -3 8 -34 34 -68 57 -83 57 -99 75 -99 110 0 34 38 80 66 80 13 0 10
-5 -9 -20z m123 10 c0 -13 -11 -13 -30 0 -12 8 -11 10 8 10 12 0 22 -4 22 -10z
m269 -7 c-41 -25 -52 -52 -56 -133 -5 -85 14 -136 57 -157 38 -19 -2 -16 -43
3 -114 55 -110 238 8 290 42 19 66 17 34 -3z m178 -17 c41 -27 58 -67 58 -136
-1 -64 -20 -99 -71 -129 -47 -28 -76 -28 -41 -1 32 25 49 76 48 144 0 65 -13
99 -48 133 l-28 26 25 -8 c14 -4 40 -17 57 -29z m825 -88 c-3 -128 -12 -163
-47 -179 -18 -9 -19 -9 -3 4 26 20 40 105 36 208 -2 55 1 89 7 89 6 0 9 -46 7
-122z m877 107 c-78 -42 -82 -234 -7 -290 l23 -17 -29 7 c-92 21 -140 128
-101 222 17 39 34 57 80 78 39 19 68 18 34 0z m161 -7 c58 -40 75 -72 75 -141
0 -48 -5 -69 -22 -93 -22 -31 -78 -65 -105 -63 -10 0 -10 2 0 6 7 3 24 22 38
44 19 31 24 52 24 103 0 76 -8 102 -45 139 -35 34 -12 37 35 5z m729 9 c-42
-33 -27 -67 53 -118 29 -18 61 -42 71 -53 25 -28 22 -82 -8 -111 -32 -33 -52
-32 -27 0 11 14 18 34 15 45 -3 10 -38 42 -78 69 -75 52 -85 65 -85 109 0 29
35 72 59 72 15 -1 15 -2 0 -13z m116 3 c8 -13 -5 -13 -25 0 -13 8 -13 10 2 10
9 0 20 -4 23 -10z m-3927 -308 c-15 -7 -48 20 -48 38 0 16 3 16 28 -8 15 -15
24 -28 20 -30z m630 0 c-15 -7 -48 20 -48 38 0 16 3 16 28 -8 15 -15 24 -28
20 -30z m3159 10 c12 -7 32 -13 45 -13 16 -1 18 -3 6 -6 -9 -2 -35 1 -57 7
-33 8 -41 15 -41 33 1 19 2 20 13 6 7 -9 22 -21 34 -27z m-2674 -19 c-7 -2
-19 -2 -25 0 -7 3 -2 5 12 5 14 0 19 -2 13 -5z m1880 0 c-7 -2 -19 -2 -25 0
-7 3 -2 5 12 5 14 0 19 -2 13 -5z m-2565 -50 c-32 -2 -84 -2 -115 0 -32 2 -6
3 57 3 63 0 89 -1 58 -3z m-450 -157 c3 -3 -13 -6 -36 -6 l-42 0 0 -50 0 -50
39 0 c55 0 77 33 55 85 -7 18 -6 18 9 6 27 -21 21 -66 -10 -90 l-28 -20 23
-41 c30 -53 21 -51 -18 5 -19 27 -39 45 -50 45 -17 0 -20 -7 -20 -45 0 -25 -3
-45 -7 -45 -8 0 -6 184 2 206 3 11 71 11 83 0z m329 1 c3 -4 -15 -7 -40 -7
l-47 0 0 -45 0 -45 43 -2 42 -1 -42 -4 c-38 -4 -43 -7 -43 -29 0 -13 -4 -24
-9 -24 -13 0 -11 142 2 158 10 13 80 12 94 -1z m728 -100 c21 -54 35 -101 31
-104 -3 -3 -10 6 -15 21 -10 24 -15 26 -66 26 -49 0 -57 -3 -67 -25 -6 -14
-15 -25 -20 -25 -5 0 -2 12 5 28 8 15 22 52 32 82 24 74 45 114 55 104 4 -5
24 -53 45 -107z m499 17 c28 -43 56 -76 61 -73 6 2 9 37 8 82 -1 44 2 77 7 77
6 0 10 -45 10 -105 0 -58 -4 -105 -9 -105 -5 0 -35 38 -66 85 -31 47 -60 85
-65 85 -5 0 -11 -39 -13 -87 -3 -84 -3 -82 -5 27 -2 130 -4 130 72 14z m1532
83 c4 -4 -2 -7 -14 -7 -20 0 -22 -5 -22 -50 0 -49 1 -50 31 -50 17 0 39 5 50
10 27 15 25 64 -3 84 -12 9 -17 16 -10 16 19 0 52 -38 52 -61 0 -11 -13 -32
-29 -46 l-30 -26 24 -36 c14 -19 22 -37 20 -40 -3 -2 -6 -2 -8 0 -2 2 -15 23
-30 47 -17 26 -35 42 -47 42 -17 0 -20 -7 -20 -45 0 -83 -15 -46 -17 43 -3
110 1 133 27 129 11 -2 23 -6 26 -10z m344 1 c0 -4 -13 -8 -30 -8 -29 0 -30
-2 -30 -45 l0 -45 43 -2 42 -1 -42 -4 c-42 -4 -43 -5 -43 -39 0 -19 0 -37 0
-41 0 -5 21 -11 47 -14 l48 -6 -56 -1 -57 -2 0 102 c-1 55 1 104 3 108 6 9 75
7 75 -2z m25 2 c3 -5 1 -10 -4 -10 -6 0 -11 5 -11 10 0 6 2 10 4 10 3 0 8 -4
11 -10z m615 -2 c0 -4 -13 -8 -30 -8 -29 0 -30 -2 -30 -45 l0 -45 43 -2 42 -1
-42 -4 -43 -4 0 -44 0 -44 48 -4 c44 -4 43 -4 -8 -3 l-55 1 -1 95 c0 52 3 100
8 107 10 13 68 15 68 1z m25 2 c3 -5 1 -10 -4 -10 -6 0 -11 5 -11 10 0 6 2 10
4 10 3 0 8 -4 11 -10z m-5633 -12 c-7 -7 -12 -27 -12 -46 l0 -33 46 3 c79 5
89 65 13 79 l-34 6 36 2 c58 2 78 -40 40 -86 -15 -18 -26 -21 -55 -18 -31 4
-36 2 -42 -19 -3 -13 -4 -35 -2 -47 2 -20 10 -25 41 -27 49 -4 81 21 72 56 -4
15 -2 21 5 17 15 -10 12 -46 -7 -67 -12 -13 -30 -18 -70 -18 l-53 0 0 105 c0
92 2 105 17 105 13 0 14 -3 5 -12z m318 -87 l0 -100 43 -4 42 -4 -50 -1 -50
-2 -3 105 c-2 70 0 105 7 105 7 0 11 -35 11 -99z m296 2 c16 -46 34 -83 40
-83 6 0 26 41 43 90 18 50 35 90 37 90 7 0 -2 -29 -38 -127 -17 -46 -36 -83
-42 -83 -6 0 -27 42 -45 93 -45 122 -46 124 -34 112 6 -5 23 -47 39 -92z m419
77 c10 -11 13 -20 8 -20 -6 0 -16 7 -23 15 -18 22 -67 19 -80 -5 -9 -17 -6
-25 14 -45 28 -28 22 -33 -12 -9 -44 30 -17 84 42 84 20 0 40 -8 51 -20z
m1055 1 c0 -11 5 -23 10 -26 6 -3 10 -12 10 -18 0 -7 -5 -4 -11 6 -19 32 -28
17 -32 -50 -3 -64 -3 -63 -5 20 -2 71 1 87 13 87 8 0 15 -9 15 -19z m178 -88
l-2 -108 -3 88 c-3 74 -6 88 -19 83 -8 -3 -13 -2 -11 2 2 4 7 15 10 25 4 9 11
17 17 17 6 0 9 -39 8 -107z m553 5 c2 -54 0 -100 -4 -104 -4 -4 -7 41 -7 101
0 60 2 106 4 104 3 -2 6 -48 7 -101z m657 90 c19 -19 14 -33 -6 -15 -44 40
-107 4 -81 -45 11 -21 11 -22 -4 -9 -22 18 -22 57 1 70 24 14 75 14 90 -1z
m480 5 c-47 -4 -48 -5 -48 -39 0 -18 -1 -37 -2 -41 -2 -5 17 -11 42 -14 36 -5
38 -6 13 -7 -53 -3 -58 -8 -55 -57 2 -26 0 -45 -6 -45 -6 0 -10 42 -11 105
l-1 105 57 -2 c57 -2 57 -2 11 -5z m413 -22 c47 -48 37 -130 -21 -164 -52 -31
-120 -15 -146 34 -40 77 8 159 93 159 36 0 50 -6 74 -29z m839 -22 c16 -58 48
-129 58 -129 5 0 24 41 42 90 18 50 35 88 38 86 8 -9 -70 -206 -82 -206 -9 0
-35 60 -84 199 -3 9 -1 12 6 7 6 -4 16 -25 22 -47z m647 44 c-15 -4 -17 -13
-15 -51 l3 -47 40 0 c32 0 42 5 51 24 17 33 3 65 -32 72 l-29 7 27 1 c29 1 58
-30 58 -62 0 -10 -12 -29 -27 -43 l-26 -24 22 -43 22 -42 -25 30 c-14 17 -26
35 -26 41 0 7 -7 15 -16 18 -35 13 -43 6 -47 -41 -2 -27 -4 0 -5 60 -2 105 -2
107 21 106 17 -1 18 -2 4 -6z m-3707 -162 c-1 -13 -29 45 -29 59 0 8 6 0 14
-19 8 -18 15 -36 15 -40z m1328 53 c44 -31 18 -94 -39 -94 -27 0 -77 35 -66
47 3 2 15 -5 27 -17 16 -16 28 -20 48 -15 48 12 55 43 16 74 -31 24 -19 29 14
5z m-2440 -6 c22 -22 14 -67 -13 -80 -34 -15 -89 1 -93 27 -2 18 -1 18 8 4 22
-36 100 -30 100 8 0 9 -7 25 -17 35 -18 20 -4 25 15 6z m1145 -66 c-6 -24 -18
-28 -28 -11 -4 6 1 16 11 24 23 16 25 15 17 -13z m-116 -14 c-3 -8 -6 -5 -6 6
-1 11 2 17 5 13 3 -3 4 -12 1 -19z m-202 -3 c6 -2 -13 -4 -42 -4 -28 -1 -54 3
-57 8 -5 8 74 5 99 -4z"/>
<path d="M3075 3970 c-152 -152 -167 -170 -142 -170 47 0 76 23 221 169 118
120 137 143 126 156 -7 8 -18 15 -24 15 -6 0 -88 -76 -181 -170z"/>
<path d="M3340 4125 c-11 -13 5 -33 101 -130 87 -89 119 -115 139 -115 15 0
29 3 32 6 7 7 -236 254 -250 254 -5 0 -15 -7 -22 -15z"/>
<path d="M3170 3954 l-135 -136 45 5 c25 3 101 13 170 21 69 9 160 16 203 16
42 0 77 3 77 8 0 8 -212 222 -220 222 -3 0 -66 -61 -140 -136z"/>
<path d="M3666 3831 c-4 -7 -5 -15 -2 -18 9 -9 19 4 14 18 -4 11 -6 11 -12 0z"/>
<path d="M2875 3735 c-16 -8 -52 -14 -80 -15 -49 -1 -107 -22 -89 -32 10 -6
251 46 261 56 12 12 -62 4 -92 -9z"/>
<path d="M3750 3713 c0 -22 22 -50 97 -125 55 -56 90 -98 80 -98 -8 0 -24 10
-34 23 -11 12 -49 50 -85 85 l-65 64 -20 -35 c-18 -30 -28 -35 -81 -46 -33 -6
-62 -17 -64 -23 -5 -15 -144 7 -189 29 -25 13 -35 13 -54 3 -13 -7 -35 -10
-49 -6 -15 4 -26 2 -26 -4 0 -5 13 -10 28 -10 41 0 317 -48 379 -66 28 -8 73
-19 100 -23 26 -5 93 -23 148 -41 127 -40 150 -46 142 -33 -8 13 -97 45 -204
74 -46 12 -83 26 -83 32 0 5 8 6 18 2 9 -4 49 -16 88 -25 39 -10 84 -25 100
-33 16 -8 48 -18 69 -22 40 -7 38 -5 -115 149 -85 86 -160 156 -167 156 -7 0
-13 -12 -13 -27z"/>
<path d="M2407 3303 c-37 -36 -67 -70 -67 -74 0 -7 490 -501 548 -553 18 -15
24 -16 37 -6 8 7 15 17 15 22 0 5 -117 127 -260 270 -143 144 -260 264 -260
268 0 3 27 32 60 65 33 33 60 63 60 67 0 4 -15 8 -33 8 -26 0 -44 -12 -100
-67z"/>
<path d="M2566 3350 c-30 -21 -115 -113 -116 -125 0 -16 208 -217 218 -211 5
3 12 28 16 55 4 28 11 53 16 56 5 3 27 54 50 113 23 59 44 112 46 117 7 17
-205 13 -230 -5z"/>
<path d="M4228 3224 c-12 -21 -37 -43 -63 -55 -25 -12 -93 -72 -172 -152 -108
-109 -132 -139 -138 -170 -4 -21 -5 -40 -3 -42 3 -3 100 90 216 205 188 186
211 213 202 230 -14 27 -17 26 -42 -16z"/>
<path d="M3825 3138 c-300 -28 -344 -34 -318 -43 12 -4 23 -14 25 -22 2 -8 30
-26 63 -40 76 -31 105 -38 105 -24 0 17 47 -8 64 -34 8 -12 35 -29 60 -39 l45
-17 116 116 c63 64 115 119 115 121 0 6 -60 2 -275 -18z m-175 -98 c8 -5 11
-10 5 -10 -5 0 -17 5 -25 10 -8 5 -10 10 -5 10 6 0 17 -5 25 -10z"/>
<path d="M2740 2992 c-14 -2 -29 -7 -33 -11 -7 -7 154 -177 235 -249 l26 -24
94 50 c110 59 212 90 432 133 32 6 54 14 50 19 -19 17 -179 41 -277 40 -56 0
-185 -6 -286 -14 -101 -8 -190 -12 -197 -9 -7 2 -14 19 -16 36 -3 28 -6 32
-28 29z"/>
<path d="M3340 2814 c-25 -8 -74 -21 -109 -30 -71 -17 -137 -42 -130 -49 3 -2
41 7 84 20 44 14 87 25 95 25 8 0 49 11 90 24 53 17 66 24 45 24 -16 1 -50 -6
-75 -14z"/>
<path d="M3688 2690 c-21 -10 -110 -91 -199 -180 -135 -136 -159 -163 -148
-176 7 -8 18 -14 25 -12 8 2 85 73 171 160 232 230 230 228 207 228 -10 -1
-36 -9 -56 -20z"/>
<path d="M3540 2669 c-148 -20 -400 -101 -400 -128 0 -12 158 -166 170 -166 5
0 62 52 127 116 156 154 176 176 166 181 -4 2 -33 1 -63 -3z"/>
<path d="M3080 2515 c-7 -9 -11 -17 -9 -20 67 -72 175 -175 184 -175 7 0 18 7
25 15 10 13 -2 29 -79 105 -51 50 -96 90 -100 90 -5 0 -14 -7 -21 -15z"/>
<path d="M2856 1363 c-24 -69 -22 -73 30 -73 45 0 46 1 39 27 -11 45 -33 93
-44 93 -5 0 -16 -21 -25 -47z"/>
<path d="M4577 1410 c-32 -25 -43 -72 -27 -111 13 -30 55 -59 85 -59 30 0 72
29 85 59 26 63 -19 131 -85 131 -18 0 -44 -9 -58 -20z"/>
</g>
</svg>
