<?xml version="1.0" encoding="UTF-8" standalone="no"?>
<svg
   id="Layer_1"
   data-name="Layer 1"
   viewBox="0 0 214.20178 51.54942"
   version="1.1"
   sodipodi:docname="logo.svg"
   inkscape:version="1.2 (dc2aedaf03, 2022-05-15)"
   width="214.20177"
   height="51.549419"
   xmlns:inkscape="http://www.inkscape.org/namespaces/inkscape"
   xmlns:sodipodi="http://sodipodi.sourceforge.net/DTD/sodipodi-0.dtd"
   xmlns:xlink="http://www.w3.org/1999/xlink"
   xmlns="http://www.w3.org/2000/svg"
   xmlns:svg="http://www.w3.org/2000/svg">
  <sodipodi:namedview
     id="namedview37"
     pagecolor="#ffffff"
     bordercolor="#000000"
     borderopacity="0.25"
     inkscape:showpageshadow="2"
     inkscape:pageopacity="0.0"
     inkscape:pagecheckerboard="0"
     inkscape:deskcolor="#d1d1d1"
     showgrid="false"
     inkscape:zoom="4.3156263"
     inkscape:cx="172.62848"
     inkscape:cy="49.355525"
     inkscape:window-width="1920"
     inkscape:window-height="1009"
     inkscape:window-x="-8"
     inkscape:window-y="-8"
     inkscape:window-maximized="1"
     inkscape:current-layer="g8804" />
  <defs
     id="defs18">
    <rect
       x="256.91367"
       y="87.822533"
       width="315.89896"
       height="98.964203"
       id="rect3361" />
    <style
       id="style2">.cls-1{font-size:69.49px;fill:#ff811a;font-family:Exo2-SemiBold, Exo2 SemiBold;font-weight:600;}.cls-2{fill:#2a36ff;}.cls-3{fill:url(#linear-gradient);}.cls-4{fill:url(#linear-gradient-2);}.cls-5{fill:url(#linear-gradient-3);}.cls-6{fill:url(#linear-gradient-4);}.cls-7{fill:url(#linear-gradient-5);}.cls-8{fill:url(#linear-gradient-6);}</style>
    <linearGradient
       id="linear-gradient"
       x1="252.47"
       y1="242.16"
       x2="295.26999"
       y2="242.16"
       gradientUnits="userSpaceOnUse">
      <stop
         offset="0"
         stop-color="#2ab0ee"
         id="stop4" />
      <stop
         offset="1"
         stop-color="#2a36ff"
         id="stop6" />
    </linearGradient>
    <linearGradient
       id="linear-gradient-2"
       x1="302.76001"
       y1="185.78999"
       x2="353.03"
       y2="185.78999"
       xlink:href="#linear-gradient" />
    <linearGradient
       id="linear-gradient-3"
       x1="295.5"
       y1="208.16"
       x2="241.67"
       y2="201.37"
       gradientUnits="userSpaceOnUse">
      <stop
         offset="0"
         stop-color="#ffb700"
         id="stop10" />
      <stop
         offset="1"
         stop-color="#ff1e1a"
         id="stop12" />
    </linearGradient>
    <linearGradient
       id="linear-gradient-4"
       x1="235.02"
       y1="215.73"
       x2="262.92999"
       y2="166.02"
       xlink:href="#linear-gradient-3" />
    <linearGradient
       id="linear-gradient-5"
       x1="234.2"
       y1="269.54999"
       x2="268.66"
       y2="208.17"
       xlink:href="#linear-gradient-3" />
    <linearGradient
       id="linear-gradient-6"
       x1="252.48"
       y1="211.42999"
       x2="353.03"
       y2="211.42999"
       xlink:href="#linear-gradient" />
    <linearGradient
       inkscape:collect="always"
       xlink:href="#linear-gradient"
       id="linearGradient355"
       gradientUnits="userSpaceOnUse"
       x1="252.47"
       y1="242.16"
       x2="295.26999"
       y2="242.16" />
    <linearGradient
       inkscape:collect="always"
       xlink:href="#linear-gradient-3"
       id="linearGradient357"
       gradientUnits="userSpaceOnUse"
       x1="295.5"
       y1="208.16"
       x2="241.67"
       y2="201.37" />
  </defs>
  <g
     id="g353"
     transform="matrix(0.50208844,0,0,0.50208844,-114.16989,-80.359255)">
    <path
       class="cls-3"
       d="m 282.7,221.61 12.57,17.09 -8.8,12 a 29.56,29.56 0 0 1 -23.79,12 h -10.21 z"
       id="path24"
       style="fill:url(#linearGradient355)" />
    <path
       class="cls-4"
       d="M 353,160.15 315.29,211.43 302.73,194.34 319,172.19 a 29.54,29.54 0 0 1 23.79,-12 z"
       id="path26"
       style="fill:url(#linear-gradient-2)" />
    <path
       class="cls-5"
       d="m 283.9,195.14 -2.68,4.08 -0.42,0.66 -5,7.56 a 32.46,32.46 0 0 1 -15,4 c -0.26,0 -0.49,0 -0.75,0 H 229.8 a 41,41 0 0 0 30.52,-16.29 z"
       id="path28"
       style="fill:url(#linearGradient357)" />
    <path
       class="cls-6"
       d="m 267.58,180.65 -0.75,1.5 c 0,0 0,0 0,0 l -3.45,7 -1.19,2.35 -1.84,3.55 a 41,41 0 0 1 -30.52,16.29 h -2.44 l 6.43,-13.12 1.55,-3.17 17.14,-35 v 0 l 14.81,20.12 z"
       id="path30"
       style="fill:url(#linear-gradient-4)" />
    <path
       class="cls-7"
       d="m 275.84,207.44 -2.6,4 -23,35.19 -10.52,16.09 9.93,-25 9.84,-24.77 0.59,-1.5 v 0 c 0.26,0 0.49,0 0.75,0 a 32.46,32.46 0 0 0 15.01,-4.01 z"
       id="path32"
       style="fill:url(#linear-gradient-5)" />
    <path
       class="cls-8"
       d="m 353,262.71 v 0 a 49.7,49.7 0 0 1 -40,-20.25 l -6.55,-8.91 -3.69,-5 -12.58,-17.09 -3.59,-4.89 -5.38,-7.32 -3,-4.09 -10.64,-14.47 -15.08,-20.51 h 17.21 a 15.65,15.65 0 0 1 12.62,6.39 l 17.45,23.73 3,4.07 12.56,17.09 5.51,7.5 z"
       id="path34"
       style="fill:url(#linear-gradient-6)" />
  </g>
  <g
     id="g4260"
     transform="matrix(0.50208844,0,0,0.50208844,-34.44668,-96.144689)">
    <text
       xml:space="preserve"
       id="text3359"
       style="font-weight:bold;font-size:64px;font-family:Calibri;-inkscape-font-specification:'Calibri Bold';text-align:center;white-space:pre;shape-inside:url(#rect3361);display:inline;fill:#000000;fill-opacity:1;stroke-width:12.8504;stroke-linecap:round;stroke-linejoin:round"
       transform="translate(-63.635305,96.998023)"><tspan
         x="269.51935"
         y="146.15934"
         id="tspan15495"><tspan
           style="font-family:'Exo 2.0';-inkscape-font-specification:'Exo 2.0 Bold'"
           id="tspan15493">boltXpert</tspan></tspan></text>
    <g
       id="g8804"
       transform="translate(0.65249957)">
      <rect
         style="fill:#dfdfdf;fill-opacity:1;stroke-width:25.5939;stroke-linecap:round;stroke-linejoin:round"
         id="rect7657"
         width="182.75578"
         height="30.920803"
         x="311.81967"
         y="260.25372"
         ry="7.3840723" />
      <text
         xml:space="preserve"
         style="font-style:normal;font-variant:normal;font-weight:bold;font-stretch:normal;font-size:18.5853px;font-family:'Exo 2.0';-inkscape-font-specification:'Exo 2.0 Bold';text-align:center;text-anchor:middle;fill:#000000;fill-opacity:1;stroke-width:14.9268;stroke-linecap:round;stroke-linejoin:round"
         x="429.26578"
         y="263.58307"
         id="text4197"
         transform="scale(0.93854055,1.0654841)"><tspan
           sodipodi:role="line"
           id="tspan4195"
           x="429.26578"
           y="263.58307"
           style="font-style:normal;font-variant:normal;font-weight:normal;font-stretch:normal;font-size:18.5853px;font-family:'Arial Rounded MT Bold';-inkscape-font-specification:'Arial Rounded MT Bold, ';fill:#000000;fill-opacity:1;stroke-width:14.9268">Empower your brand</tspan></text>
    </g>
    <rect
       style="fill:#000000;fill-opacity:1;stroke-width:7.75625;stroke-linecap:round;stroke-linejoin:round"
       id="rect4253-7"
       width="173.4718"
       height="2.9588056"
       x="301.95056"
       y="350.02121" />
  </g>
</svg>
